<svg width="24" height="28" viewBox="0 0 24 28" fill="none" xmlns="http://www.w3.org/2000/svg">
<path d="M12 0.25L23.875 7.125V20.875L12 27.75L0.125 20.875V7.125L12 0.25ZM12 3.13875L2.625 8.56639V19.4336L12 24.8612L21.375 19.4336V8.56639L12 3.13875ZM12 19C9.23857 19 7 16.7614 7 14C7 11.2386 9.23857 9 12 9C14.7614 9 17 11.2386 17 14C17 16.7614 14.7614 19 12 19ZM12 16.5C13.3807 16.5 14.5 15.3807 14.5 14C14.5 12.6193 13.3807 11.5 12 11.5C10.6193 11.5 9.5 12.6193 9.5 14C9.5 15.3807 10.6193 16.5 12 16.5Z" fill="#0077B6"/>
</svg>
